<svg width="24" height="18" viewBox="0 0 24 18" fill="none" xmlns="http://www.w3.org/2000/svg">
<path d="M10.5296 18L5.58562 10.632V18H0.257617V1.008H5.58562V8.16L10.4576 1.008H16.4816L10.6256 9.144L16.8656 18H10.5296ZM20.5768 5.211C19.7648 5.211 19.1138 4.994 18.6238 4.56C18.1338 4.126 17.8888 3.58 17.8888 2.922C17.8888 2.25 18.1338 1.697 18.6238 1.263C19.1138 0.814999 19.7648 0.590999 20.5768 0.590999C21.3748 0.590999 22.0188 0.814999 22.5088 1.263C22.9988 1.697 23.2438 2.25 23.2438 2.922C23.2438 3.58 22.9988 4.126 22.5088 4.56C22.0188 4.994 21.3748 5.211 20.5768 5.211ZM22.8868 6.156V18H18.2248V6.156H22.8868Z" fill="white"/>
</svg>
